<svg width="44" height="48" viewBox="0 0 44 48" fill="none" xmlns="http://www.w3.org/2000/svg">
<g id="Logo">
<path id="Vector" d="M39.0644 29.848L44 29.848L44 25.75L29.733 25.75C29.4735 30.0021 25.9028 33.376 21.5381 33.376C17.1734 33.376 13.6027 30.0021 13.3432 25.75L-1.71502e-05 25.75L-1.75084e-05 29.848L4.07406 29.848C4.29203 30.6902 4.57747 31.517 4.92001 32.3284C5.30925 33.2425 5.77116 34.1155 6.30572 34.9423L2.74025 38.4703L8.35573 44.0268L11.9264 40.4937C12.7516 41.0124 13.6235 41.4643 14.5317 41.8443C15.5541 42.2705 16.6077 42.6043 17.682 42.8354L17.682 47.75L25.6329 47.75L25.6329 42.7943C26.645 42.5633 27.6362 42.2449 28.6015 41.8443C29.5773 41.4386 30.5062 40.9507 31.3833 40.3859L34.8917 43.8574L40.5124 38.2957L36.9469 34.7677C37.4348 33.9923 37.8552 33.1758 38.2184 32.3284C38.561 31.517 38.8464 30.6902 39.0644 29.848Z" fill="#1C2752"/>
<path id="Vector_2" d="M36.9436 7.92054V16.1955C36.9436 16.7571 36.4796 17.2127 35.9078 17.2127H35.1741C34.6022 17.2127 34.1383 16.7571 34.1383 16.1955V5.76968C32.0127 4.38169 29.6282 3.34334 27.0711 2.75V17.1067C27.0711 17.6683 26.6071 18.1239 26.0353 18.1239H17.9431C17.3712 18.1239 16.9073 17.6683 16.9073 17.1067V2.75C14.3825 3.34334 11.998 4.39228 9.87248 5.76968V16.1955C9.87248 16.7571 9.40853 17.2127 8.83668 17.2127H8.10299C7.53114 17.2127 7.06718 16.7571 7.06718 16.1955V7.92054C2.72977 11.862 0 17.4881 0 23.75H44C44.0108 17.4881 41.2918 11.862 36.9436 7.92054Z" fill="#FFB342"/>
<path id="Vector_3" d="M25 15.3936C25 15.8671 24.653 16.25 24.2164 16.25H19.7836C19.3582 16.25 19 15.8671 19 15.3936V1.10642C19 0.632871 19.347 0.25 19.7836 0.25H24.2164C24.6418 0.25 25 0.632871 25 1.10642V15.3936Z" fill="#FFB342"/>
</g>
</svg>
