<svg width="69" height="68" viewBox="0 0 69 68" fill="none" xmlns="http://www.w3.org/2000/svg">
<g id="Message">
<circle id="Ellipse 1" cx="34.3" cy="34" r="34" fill="#FFB342"/>
<path id="Vector" d="M47.5509 40.8062C46.6348 39.8832 44.4159 38.5361 43.3393 37.9933C41.9373 37.2871 41.822 37.2294 40.72 38.0481C39.985 38.5944 39.4963 39.0824 38.6361 38.899C37.7759 38.7155 35.9066 37.6811 34.2699 36.0497C32.6331 34.4182 31.5386 32.4948 31.3546 31.6376C31.1705 30.7803 31.6667 30.2974 32.2079 29.5607C32.9706 28.5223 32.9129 28.3492 32.261 26.9474C31.7527 25.857 30.3663 23.6591 29.4397 22.7476C28.4486 21.7686 28.4486 21.9416 27.8099 22.207C27.2899 22.4258 26.7911 22.6917 26.3197 23.0014C25.3966 23.6146 24.8842 24.124 24.526 24.8896C24.1677 25.6551 24.0067 27.4499 25.857 30.8109C27.7072 34.1719 29.0053 35.8905 31.6921 38.5696C34.3789 41.2487 36.4449 42.6892 39.4652 44.383C43.2014 46.4754 44.6345 46.0675 45.4024 45.7098C46.1703 45.3522 46.6821 44.8445 47.2965 43.9215C47.6071 43.4508 47.8736 42.9526 48.0927 42.4331C48.3587 41.7967 48.5317 41.7967 47.5509 40.8062Z" stroke="#1C2752" stroke-width="2" stroke-miterlimit="10"/>
</g>
</svg>
