<svg width="37" height="43" viewBox="0 0 37 43" fill="none" xmlns="http://www.w3.org/2000/svg">
<g id="Icon">
<path id="Vector" d="M23.4014 4.92933L18.5787 2.11621L13.7559 4.92933" stroke="white" stroke-width="3" stroke-linecap="round" stroke-linejoin="round"/>
<path id="Vector_2" d="M18.5787 2.11621V9.14902" stroke="white" stroke-width="3" stroke-miterlimit="10" stroke-linecap="round"/>
<path id="Vector_3" d="M13.7559 38.6865L18.5787 41.4996L23.4014 38.6865" stroke="white" stroke-width="3" stroke-linecap="round" stroke-linejoin="round"/>
<path id="Vector_4" d="M18.5787 41.5001V34.4673" stroke="white" stroke-width="3" stroke-miterlimit="10" stroke-linecap="round"/>
<path id="Vector_5" d="M35.4574 17.5451V11.9619L30.785 9.19189" stroke="white" stroke-width="3" stroke-linecap="round" stroke-linejoin="round"/>
<path id="Vector_6" d="M35.4574 11.9624L29.5419 15.4788" stroke="white" stroke-width="3" stroke-miterlimit="10" stroke-linecap="round"/>
<path id="Vector_7" d="M1.69996 26.0713V31.6545L6.37238 34.4245" stroke="white" stroke-width="3" stroke-linecap="round" stroke-linejoin="round"/>
<path id="Vector_8" d="M1.69995 31.6541L7.61542 28.1377" stroke="white" stroke-width="3" stroke-miterlimit="10" stroke-linecap="round"/>
<path id="Vector_9" d="M30.785 34.4676L35.4574 31.6545V26.0713" stroke="white" stroke-width="3" stroke-linecap="round" stroke-linejoin="round"/>
<path id="Vector_10" d="M35.4574 31.6541L29.5991 28.1377" stroke="white" stroke-width="3" stroke-miterlimit="10" stroke-linecap="round"/>
<path id="Vector_11" d="M6.37238 9.19189L1.69996 11.9619V17.5451" stroke="white" stroke-width="3" stroke-linecap="round" stroke-linejoin="round"/>
<path id="Vector_12" d="M1.69995 11.9624L7.61542 15.4788M18.5787 27.4346V21.8083M18.5787 21.8083L13.7559 18.9952M18.5787 21.8083L23.4014 18.9952" stroke="white" stroke-width="3" stroke-miterlimit="10" stroke-linecap="round"/>
</g>
</svg>
