<svg width="60" height="60" viewBox="0 0 60 60" fill="none" xmlns="http://www.w3.org/2000/svg">
<g id="1">
<circle id="Ellipse" cx="30" cy="30" r="30" fill="#2C3765"/>
<g id="Insta">
<path id="Vector" d="M33.6585 22.5472C34.7231 22.5503 35.7431 22.9589 36.4958 23.6838C37.2486 24.4086 37.6729 25.3909 37.6761 26.416V34.1527C37.6729 35.1778 37.2486 36.16 36.4958 36.8849C35.7431 37.6098 34.7231 38.0183 33.6585 38.0214H25.6243C24.5598 38.0183 23.5397 37.6098 22.787 36.8849C22.0342 36.16 21.6099 35.1778 21.6068 34.1527V26.416C21.6099 25.3909 22.0342 24.4086 22.787 23.6838C23.5397 22.9589 24.5598 22.5503 25.6243 22.5472H33.6585ZM33.6585 21H25.6243C22.5309 21 20 23.4371 20 26.416V34.1527C20 37.1315 22.5309 39.5686 25.6243 39.5686H33.6585C36.752 39.5686 39.2828 37.1315 39.2828 34.1527V26.416C39.2828 23.4371 36.752 21 33.6585 21Z" fill="white"/>
<path id="Vector_2" d="M34.8638 26.4163C34.6254 26.4163 34.3924 26.3482 34.1942 26.2207C33.996 26.0932 33.8416 25.9119 33.7504 25.6999C33.6591 25.4878 33.6353 25.2545 33.6818 25.0293C33.7283 24.8042 33.8431 24.5974 34.0116 24.4351C34.1802 24.2728 34.3949 24.1623 34.6287 24.1175C34.8625 24.0727 35.1048 24.0957 35.325 24.1836C35.5452 24.2714 35.7334 24.4201 35.8659 24.611C35.9983 24.8018 36.069 25.0262 36.069 25.2558C36.0693 25.4083 36.0384 25.5593 35.9779 25.7003C35.9175 25.8412 35.8287 25.9693 35.7167 26.0771C35.6048 26.1849 35.4718 26.2704 35.3254 26.3286C35.179 26.3868 35.0222 26.4166 34.8638 26.4163ZM29.6415 27.1897C30.2772 27.1897 30.8986 27.3712 31.4271 27.7113C31.9556 28.0514 32.3676 28.5347 32.6108 29.1003C32.8541 29.6658 32.9177 30.2881 32.7937 30.8884C32.6697 31.4888 32.3636 32.0402 31.9141 32.4731C31.4646 32.9059 30.892 33.2007 30.2685 33.3201C29.6451 33.4395 28.9989 33.3782 28.4116 33.144C27.8243 32.9097 27.3224 32.513 26.9692 32.0041C26.6161 31.4951 26.4276 30.8967 26.4276 30.2846C26.4285 29.4641 26.7674 28.6774 27.3699 28.0972C27.9724 27.5169 28.7894 27.1906 29.6415 27.1897ZM29.6415 25.6425C28.6881 25.6425 27.756 25.9147 26.9633 26.4248C26.1705 26.9349 25.5526 27.6599 25.1878 28.5081C24.8229 29.3564 24.7274 30.2898 24.9134 31.1903C25.0994 32.0908 25.5586 32.9179 26.2328 33.5671C26.9069 34.2163 27.7659 34.6585 28.701 34.8376C29.6362 35.0167 30.6054 34.9248 31.4863 34.5734C32.3672 34.2221 33.1201 33.6271 33.6498 32.8637C34.1795 32.1003 34.4622 31.2028 34.4622 30.2846C34.4622 29.0534 33.9543 27.8727 33.0503 27.0021C32.1462 26.1315 30.92 25.6425 29.6415 25.6425Z" fill="white"/>
</g>
</g>
</svg>
