<svg width="69" height="68" viewBox="0 0 69 68" fill="none" xmlns="http://www.w3.org/2000/svg">
<g id="Message">
<circle id="Ellipse" cx="34.3" cy="34" r="34" fill="#FFB342"/>
<g id="Icon">
<path id="Vector" d="M34.3 20C28.7792 20 24.3 24.4274 24.3 29.8803C24.3 36.1546 30.9667 46.0977 33.4146 49.532C33.5162 49.677 33.6494 49.7949 33.8033 49.8763C33.9572 49.9576 34.1274 50 34.3 50C34.4727 50 34.6429 49.9576 34.7968 49.8763C34.9507 49.7949 35.0839 49.677 35.1855 49.532C37.6334 46.0991 44.3 36.1597 44.3 29.8803C44.3 24.4274 39.8209 20 34.3 20Z" stroke="#1C2752" stroke-width="2" stroke-linecap="round" stroke-linejoin="round"/>
<path id="Vector_2" d="M34.3 35C36.5092 35 38.3 33.2091 38.3 31C38.3 28.7909 36.5092 27 34.3 27C32.0909 27 30.3 28.7909 30.3 31C30.3 33.2091 32.0909 35 34.3 35Z" stroke="#1C2752" stroke-width="2" stroke-linecap="round" stroke-linejoin="round"/>
</g>
</g>
</svg>
